<mxfile host="app.diagrams.net" agent="Mozilla/5.0 (Windows NT 10.0; Win64; x64) AppleWebKit/537.36 (KHTML, like Gecko) Chrome/134.0.0.0 Safari/537.36" version="26.1.0">
  <diagram name="第 1 页" id="xIZvp8WTCkHreesh8G-g">
    <mxGraphModel dx="1687" dy="908" grid="1" gridSize="10" guides="1" tooltips="1" connect="1" arrows="1" fold="1" page="1" pageScale="1" pageWidth="827" pageHeight="1169" math="0" shadow="0">
      <root>
        <mxCell id="0" />
        <mxCell id="1" parent="0" />
        <mxCell id="mAP7TzTqC0urlMnNYRN4-2" value="" style="rounded=1;whiteSpace=wrap;html=1;arcSize=10;fillColor=light-dark(#f0f6ff, #1d293b);strokeColor=none;" vertex="1" parent="1">
          <mxGeometry x="414" y="680" width="886" height="320" as="geometry" />
        </mxCell>
        <mxCell id="mAP7TzTqC0urlMnNYRN4-3" value="IPM系统" style="text;html=1;align=center;verticalAlign=middle;whiteSpace=wrap;rounded=0;" vertex="1" parent="1">
          <mxGeometry x="240" y="150" width="60" height="30" as="geometry" />
        </mxCell>
        <mxCell id="mAP7TzTqC0urlMnNYRN4-4" value="AI中台" style="text;html=1;align=center;verticalAlign=middle;whiteSpace=wrap;rounded=0;" vertex="1" parent="1">
          <mxGeometry x="450" y="700" width="60" height="40" as="geometry" />
        </mxCell>
        <mxCell id="mAP7TzTqC0urlMnNYRN4-12" value="" style="shape=flexArrow;endArrow=classic;html=1;rounded=0;fillColor=#dae8fc;strokeColor=#6c8ebf;endWidth=11.333333333333334;endSize=4.776666666666666;width=8.666666666666666;" edge="1" parent="1">
          <mxGeometry width="50" height="50" relative="1" as="geometry">
            <mxPoint x="1390" y="570" as="sourcePoint" />
            <mxPoint x="1390" y="638" as="targetPoint" />
          </mxGeometry>
        </mxCell>
        <mxCell id="mAP7TzTqC0urlMnNYRN4-27" style="edgeStyle=orthogonalEdgeStyle;rounded=0;orthogonalLoop=1;jettySize=auto;html=1;entryX=0.5;entryY=0;entryDx=0;entryDy=0;" edge="1" parent="1" source="mAP7TzTqC0urlMnNYRN4-15" target="mAP7TzTqC0urlMnNYRN4-16">
          <mxGeometry relative="1" as="geometry" />
        </mxCell>
        <mxCell id="mAP7TzTqC0urlMnNYRN4-15" value="知识文档" style="shape=document;whiteSpace=wrap;html=1;boundedLbl=1;" vertex="1" parent="1">
          <mxGeometry x="1126" y="555" width="110" height="60" as="geometry" />
        </mxCell>
        <mxCell id="mAP7TzTqC0urlMnNYRN4-28" style="edgeStyle=orthogonalEdgeStyle;rounded=0;orthogonalLoop=1;jettySize=auto;html=1;" edge="1" parent="1" source="mAP7TzTqC0urlMnNYRN4-16">
          <mxGeometry relative="1" as="geometry">
            <mxPoint x="1029.9999999999998" y="760" as="targetPoint" />
          </mxGeometry>
        </mxCell>
        <mxCell id="mAP7TzTqC0urlMnNYRN4-16" value="分词处理" style="rounded=0;whiteSpace=wrap;html=1;" vertex="1" parent="1">
          <mxGeometry x="1121" y="730" width="120" height="60" as="geometry" />
        </mxCell>
        <mxCell id="mAP7TzTqC0urlMnNYRN4-31" style="edgeStyle=orthogonalEdgeStyle;rounded=0;orthogonalLoop=1;jettySize=auto;html=1;entryX=0;entryY=0.5;entryDx=0;entryDy=0;" edge="1" parent="1" source="mAP7TzTqC0urlMnNYRN4-17" target="mAP7TzTqC0urlMnNYRN4-26">
          <mxGeometry relative="1" as="geometry" />
        </mxCell>
        <mxCell id="mAP7TzTqC0urlMnNYRN4-17" value="向量化" style="rounded=0;whiteSpace=wrap;html=1;" vertex="1" parent="1">
          <mxGeometry x="890" y="870" width="120" height="60" as="geometry" />
        </mxCell>
        <mxCell id="mAP7TzTqC0urlMnNYRN4-18" value="Embedding&lt;div&gt;Store&lt;/div&gt;" style="shape=cylinder3;whiteSpace=wrap;html=1;boundedLbl=1;backgroundOutline=1;size=15;" vertex="1" parent="1">
          <mxGeometry x="1143.5" y="1030" width="75" height="80" as="geometry" />
        </mxCell>
        <mxCell id="mAP7TzTqC0urlMnNYRN4-22" value="" style="group" vertex="1" connectable="0" parent="1">
          <mxGeometry x="890" y="720" width="140" height="90" as="geometry" />
        </mxCell>
        <mxCell id="mAP7TzTqC0urlMnNYRN4-19" value="" style="shape=document;whiteSpace=wrap;html=1;boundedLbl=1;" vertex="1" parent="mAP7TzTqC0urlMnNYRN4-22">
          <mxGeometry x="20" width="120" height="70" as="geometry" />
        </mxCell>
        <mxCell id="mAP7TzTqC0urlMnNYRN4-20" value="" style="shape=document;whiteSpace=wrap;html=1;boundedLbl=1;" vertex="1" parent="mAP7TzTqC0urlMnNYRN4-22">
          <mxGeometry x="10" y="10" width="120" height="70" as="geometry" />
        </mxCell>
        <mxCell id="mAP7TzTqC0urlMnNYRN4-21" value="Segments" style="shape=document;whiteSpace=wrap;html=1;boundedLbl=1;" vertex="1" parent="mAP7TzTqC0urlMnNYRN4-22">
          <mxGeometry y="20" width="120" height="70" as="geometry" />
        </mxCell>
        <mxCell id="mAP7TzTqC0urlMnNYRN4-23" value="" style="group" vertex="1" connectable="0" parent="1">
          <mxGeometry x="1111" y="845" width="140" height="90" as="geometry" />
        </mxCell>
        <mxCell id="mAP7TzTqC0urlMnNYRN4-24" value="" style="shape=document;whiteSpace=wrap;html=1;boundedLbl=1;" vertex="1" parent="mAP7TzTqC0urlMnNYRN4-23">
          <mxGeometry x="20" width="120" height="70" as="geometry" />
        </mxCell>
        <mxCell id="mAP7TzTqC0urlMnNYRN4-25" value="" style="shape=document;whiteSpace=wrap;html=1;boundedLbl=1;" vertex="1" parent="mAP7TzTqC0urlMnNYRN4-23">
          <mxGeometry x="10" y="10" width="120" height="70" as="geometry" />
        </mxCell>
        <mxCell id="mAP7TzTqC0urlMnNYRN4-26" value="Embeddings" style="shape=document;whiteSpace=wrap;html=1;boundedLbl=1;" vertex="1" parent="mAP7TzTqC0urlMnNYRN4-23">
          <mxGeometry y="20" width="120" height="70" as="geometry" />
        </mxCell>
        <mxCell id="mAP7TzTqC0urlMnNYRN4-30" style="edgeStyle=orthogonalEdgeStyle;rounded=0;orthogonalLoop=1;jettySize=auto;html=1;entryX=0.5;entryY=0;entryDx=0;entryDy=0;" edge="1" parent="1" source="mAP7TzTqC0urlMnNYRN4-21" target="mAP7TzTqC0urlMnNYRN4-17">
          <mxGeometry relative="1" as="geometry" />
        </mxCell>
        <mxCell id="mAP7TzTqC0urlMnNYRN4-32" style="edgeStyle=orthogonalEdgeStyle;rounded=0;orthogonalLoop=1;jettySize=auto;html=1;entryX=0.5;entryY=0;entryDx=0;entryDy=0;entryPerimeter=0;" edge="1" parent="1" source="mAP7TzTqC0urlMnNYRN4-25" target="mAP7TzTqC0urlMnNYRN4-18">
          <mxGeometry relative="1" as="geometry" />
        </mxCell>
        <mxCell id="mAP7TzTqC0urlMnNYRN4-33" value="" style="rounded=1;whiteSpace=wrap;html=1;arcSize=10;fillColor=light-dark(#f0f6ff, #1d293b);strokeColor=none;" vertex="1" parent="1">
          <mxGeometry x="20" y="680" width="320" height="320" as="geometry" />
        </mxCell>
      </root>
    </mxGraphModel>
  </diagram>
</mxfile>
